<svg xmlns="http://www.w3.org/2000/svg" width="468" height="41" viewBox="0 0 468 41">
  <g id="logo-scientific-reports-m" transform="translate(-130.325 -99.586)">
    <path id="area" d="M0,0H468V41H0Z" transform="translate(130.325 99.586)" fill="none"/>
    <g id="scientific-reports" transform="translate(130.325 102.586)">
      <path id="Path_6094" data-name="Path 6094" d="M10,15.271c-2.441-.3-3.362-.684-3.362-1.642,0-.914.763-1.562,2.254-1.562a2.23,2.23,0,0,1,2.556,1.987h6.185c-.461-4.774-3.9-6.451-8.82-6.451C4.19,7.6.259,9.742.259,14.17c0,4.162,2.254,5.724,7.6,6.415,2.75.382,3.7.842,3.7,1.793,0,.994-.763,1.642-2.441,1.642-1.944,0-2.6-.8-2.822-2.254H0c.151,4.428,3.47,6.8,9.166,6.8,5.537,0,9.05-2.138,9.05-6.869-.007-4.284-2.678-5.731-8.215-6.422Z" transform="translate(0 0.95)"/>
      <path id="Path_6095" data-name="Path 6095" d="M27.869,23.558c-2.6,0-3.931-1.793-3.931-5.27v-.3c0-3.362,1.411-5.076,3.816-5.076,1.987,0,2.9,1.03,3.2,2.9h6.415C36.991,9.742,32.484,7.6,27.6,7.6c-5.882,0-10.649,3.816-10.649,10.462v.3c0,6.718,4.543,10.2,10.5,10.2,6.451,0,9.85-3.283,10.037-8.323H31.339a3.319,3.319,0,0,1-3.47,3.319Z" transform="translate(2.119 0.95)"/>
      <path id="Path_6096" data-name="Path 6096" d="M37.043,8.077h6.833V28.042H37.043Z" transform="translate(4.63 1.01)"/>
      <path id="Path_6097" data-name="Path 6097" d="M40.48.1a3.538,3.538,0,1,0,0,7.063,3.571,3.571,0,0,0,3.78-3.514A3.6,3.6,0,0,0,40.48.1Z" transform="translate(4.592 0.013)"/>
      <path id="Path_6098" data-name="Path 6098" d="M55.722,7.6c-6.034,0-10.807,4.046-10.807,10.462v.3c0,6.53,4.579,10.2,10.843,10.2,6.034,0,9.5-2.556,10.116-7.063H59.459c-.266,1.339-1.224,2.369-3.47,2.369-2.441,0-3.967-1.526-4.162-4.162H65.882V17.914c0-7.186-4.694-10.31-10.159-10.31Zm-3.816,8.244c.346-2.4,1.757-3.744,3.816-3.744,2.218,0,3.4,1.339,3.514,3.744Z" transform="translate(5.614 0.95)"/>
      <path id="Path_6099" data-name="Path 6099" d="M78.929,7.6a7.04,7.04,0,0,0-6.566,3.744v-3.2H65.53V28.109h6.833v-11.2c0-2.556,1.375-3.78,3.4-3.78,1.987,0,2.866,1.109,2.866,3.362V28.1h6.833V15.12c0-5.112-2.678-7.517-6.53-7.517Z" transform="translate(8.191 0.95)"/>
      <path id="Path_6100" data-name="Path 6100" d="M93.628,21.442V13.2h3.931V8.539H93.628V4.378H86.8V8.539h-2.4V13.2h2.4V22.09c0,4.694,2.52,6.869,7.027,6.869a14.6,14.6,0,0,0,3.78-.569V23.2a5.169,5.169,0,0,1-1.944.346C94.348,23.544,93.628,22.9,93.628,21.442Z" transform="translate(10.549 0.547)"/>
      <path id="Path_6101" data-name="Path 6101" d="M98.221,8.077h6.833V28.042H98.221Z" transform="translate(12.278 1.01)"/>
      <path id="Path_6102" data-name="Path 6102" d="M101.651.1a3.538,3.538,0,1,0,0,7.063,3.571,3.571,0,0,0,3.78-3.514A3.6,3.6,0,0,0,101.651.1Z" transform="translate(12.238 0.013)"/>
      <path id="Path_6103" data-name="Path 6103" d="M108.376,7.33V9.086h-2.52v4.658h2.52V29.052h6.8V13.745h4.046V9.086h-4.046V7.33a1.992,1.992,0,0,1,2.254-2.174,5.9,5.9,0,0,1,1.793.23v-5A11.4,11.4,0,0,0,116.166,0C111.472,0,108.376,2.369,108.376,7.33Z" transform="translate(13.232)"/>
      <path id="Path_6104" data-name="Path 6104" d="M122.547.1a3.538,3.538,0,1,0,0,7.063,3.571,3.571,0,0,0,3.78-3.514A3.6,3.6,0,0,0,122.547.1Z" transform="translate(14.85 0.013)"/>
      <path id="Path_6105" data-name="Path 6105" d="M119.11,8.077h6.833V28.042H119.11Z" transform="translate(14.889 1.01)"/>
      <path id="Path_6106" data-name="Path 6106" d="M137.9,23.558c-2.6,0-3.931-1.793-3.931-5.27v-.3c0-3.362,1.411-5.076,3.816-5.076,1.987,0,2.9,1.03,3.2,2.9h6.415c-.382-6.07-4.889-8.208-9.77-8.208-5.882,0-10.649,3.816-10.649,10.462v.3c0,6.718,4.543,10.2,10.5,10.2,6.451,0,9.85-3.283,10.037-8.323h-6.149A3.319,3.319,0,0,1,137.9,23.558Z" transform="translate(15.874 0.95)"/>
      <path id="Path_6107" data-name="Path 6107" d="M160.256,11.7V8.115h-3.168V28.081h3.168V17.122c0-4.925,2.556-6.185,6.566-6.372V7.77a6.983,6.983,0,0,0-6.566,3.931Z" transform="translate(19.636 0.971)"/>
      <path id="Path_6108" data-name="Path 6108" d="M176.06,7.77c-5.5,0-9.353,4.2-9.353,10.231v.3c0,6.149,4.01,10.116,9.655,10.116,4.507,0,7.826-2.1,8.51-6.106H181.7c-.418,2.326-2.218,3.478-5.306,3.478-4.082,0-6.264-2.52-6.415-7.063h15.041V17.7c.007-7.142-4.349-9.929-8.964-9.929Zm-5.954,8.4c.533-3.55,2.707-5.767,5.954-5.767,3.283,0,5.422,1.642,5.724,5.767Z" transform="translate(20.838 0.971)"/>
      <path id="Path_6109" data-name="Path 6109" d="M196.13,7.77a8.233,8.233,0,0,0-6.761,3.7V8.108H186.2V35.029h3.168V24.8a7.571,7.571,0,0,0,6.761,3.629c5.5,0,9.086-4.2,9.086-10.31v-.3c0-6.228-3.859-10.044-9.086-10.044Zm5.8,10.5c0,4.846-2.138,7.524-6.106,7.524-3.9,0-6.566-2.4-6.566-7.524v-.3c0-5.112,2.822-7.56,6.53-7.56,3.362,0,6.149,2.52,6.149,7.56v.3Z" transform="translate(23.275 0.971)"/>
      <path id="Path_6110" data-name="Path 6110" d="M215,7.77c-5.652,0-9.814,4.2-9.814,10.2v.3c0,5.839,4.082,10.152,9.77,10.152s9.85-4.162,9.85-10.2v-.3c.007-5.99-4.154-10.152-9.806-10.152Zm6.53,10.5c0,4.507-2.52,7.524-6.53,7.524-4.046,0-6.53-2.981-6.53-7.524v-.3c0-4.579,2.52-7.56,6.53-7.56,3.967,0,6.53,2.981,6.53,7.6Z" transform="translate(25.649 0.971)"/>
      <path id="Path_6111" data-name="Path 6111" d="M228.986,11.7V8.115h-3.168V28.081h3.168V17.122c0-4.925,2.556-6.185,6.566-6.372V7.77a6.983,6.983,0,0,0-6.566,3.931Z" transform="translate(28.227 0.971)"/>
      <path id="Path_6112" data-name="Path 6112" d="M242.162,23.241V11.253h4.658V8.582h-4.658V4.038h-3.168V8.582h-2.866v2.671h2.866v12.29c0,3.132,1.757,5.27,5.386,5.27a7.679,7.679,0,0,0,2.707-.418V25.725a6.512,6.512,0,0,1-2.441.418c-1.606,0-2.484-.958-2.484-2.9Z" transform="translate(29.516 0.505)"/>
      <path id="Path_6113" data-name="Path 6113" d="M255.636,16.438c-3.665-.648-4.658-1.375-4.658-3.168,0-1.721,1.49-2.866,3.78-2.866,2.52,0,3.744.958,4.2,3.132h3.053c-.533-4.313-3.629-5.767-7.214-5.767-3.132,0-6.761,1.908-6.761,5.609,0,3.478,1.757,4.925,6.948,5.882,3.089.569,4.658,1.26,4.658,3.362,0,2.138-1.339,3.168-4.349,3.168-3.2,0-4.464-1.49-4.694-3.859h-3.089c.194,4.082,3.053,6.487,7.826,6.487,4.846,0,7.33-2.441,7.33-6.07,0-4.234-2.9-5.148-7.027-5.911Z" transform="translate(30.938 0.971)"/>
    </g>
  </g>
</svg>
